<svg width="67" height="81" viewBox="0 0 67 81" fill="none" xmlns="http://www.w3.org/2000/svg">
<path d="M64.5287 16.3231C63.9687 16.1082 63.3856 16.015 62.8474 16.0526C62.0697 16.107 61.4417 16.4242 61.0696 16.9433C58.8781 20.0268 57.0833 25.8501 55.6359 30.529C54.9717 32.6928 54.0799 35.5885 53.4342 36.9628C52.7606 33.1125 53.5215 19.008 53.8166 13.5762L53.8214 13.4885C54.026 9.71476 54.0535 9.05304 54.0087 8.76242C53.6836 6.69233 52.8577 5.33352 51.5529 4.72531C50.2338 4.10851 48.5208 4.3814 46.6753 5.49677C45.7502 6.05875 45.4943 7.98779 44.7001 16.7314L44.6972 16.7699C44.2599 21.5735 43.2534 32.634 42.0148 34.476C40.6173 31.8989 38.6946 17.2565 37.8648 10.9186C37.284 6.47985 36.9457 3.93121 36.7185 3.1616C36.2397 1.54896 34.2188 0.176748 32.2178 0.100718C30.5523 0.0176994 29.1856 0.868682 28.5335 2.34731C27.3133 3.71122 27.7443 8.23426 29.0931 18.9469C29.7351 24.0452 31.0602 34.5765 30.2262 35.7578C28.5634 35.5762 25.7086 28.9796 21.7403 16.1456C20.627 12.5514 20.2823 11.4703 19.9404 10.9971C19.2663 9.34892 16.9753 8.0776 14.9213 8.22124C14.7459 8.2335 14.5754 8.25635 14.4069 8.28863C13.3317 8.50314 10.8782 9.49718 11.4011 14.0847C12.85 20.4449 14.4237 25.1147 15.951 29.6472L15.9819 29.7379C16.8957 32.4527 17.7596 35.0178 18.5623 37.8646C20.4544 44.5858 19.7187 48.756 19.7097 48.803C19.6468 49.2323 19.5149 49.4943 19.3164 49.5859C19.245 49.6197 19.1535 49.6397 19.0503 49.6469C18.4507 49.6888 17.5513 49.2901 17.0878 49.0301C16.029 46.9977 10.7575 37.3106 5.98077 35.967L5.80915 35.9162L5.63551 35.9324C3.88353 36.0986 2.59533 36.7637 1.80807 37.909C0.560514 39.7202 1.07693 42.0269 1.2022 42.4894L1.27262 42.6552C1.31161 42.7249 5.14226 49.7395 5.73512 53.0026C6.24635 55.8001 8.89134 58.8321 11.0179 61.2681L11.1055 61.3672C11.7992 62.1644 12.3979 62.8532 12.87 63.4909C19.0404 69.9553 28.7987 75.393 28.8782 75.4366C30.0957 76.3392 30.7728 77.2111 30.8443 77.9617C30.8896 78.4531 30.6355 78.7468 30.6266 78.7569L30.4141 78.9794L31.763 80.2963L57.5079 78.4796L58.6054 73.4276C61.9996 59.1594 61.291 46.9936 61.2798 46.9124C61.2922 46.4648 62.2436 42.1362 63.0085 38.6389L63.031 38.5499C64.556 31.5828 66.4525 22.9137 66.8162 19.6166C66.9744 18.2068 66.0765 16.9116 64.5287 16.3231Z" fill="#3B4262"/>
</svg>
